<?xml version="1.0" encoding="utf-8"?>
<!-- Generated by IcoMoon.io -->
<!DOCTYPE svg PUBLIC "-//W3C//DTD SVG 1.1//EN" "http://www.w3.org/Graphics/SVG/1.1/DTD/svg11.dtd">
<svg version="1.1" xmlns="http://www.w3.org/2000/svg" xmlns:xlink="http://www.w3.org/1999/xlink" width="32" height="32" viewBox="0 0 32 32">
<path fill="#444444" d="M7.352 7.772c-1.587 0-2.953 0.525-4.096 1.575-1.19 1.12-1.786 2.521-1.786 4.201 0 1.12 0.324 2.171 0.978 3.151 0.584 0.91 1.193 1.494 1.993 1.751v0.070c-0.8 0.326-1.155 1.143-1.155 2.451 0 1.004 0.355 1.751 1.155 2.241v0.070c-2.208 0.723-3.219 2.065-3.219 4.026 0 1.704 0.742 2.953 2.19 3.746 1.143 0.63 2.612 0.945 4.386 0.945 4.318 0 6.481-1.809 6.481-5.427 0-2.264-1.666-3.653-5.004-4.166-0.77-0.116-1.353-0.397-1.749-0.84-0.303-0.303-0.454-0.607-0.454-0.91 0-0.863 0.467-1.366 1.401-1.506 1.424-0.21 2.585-0.869 3.484-1.978s1.348-2.41 1.348-3.904c0-0.467-0.141-0.969-0.328-1.505 0.607-0.14 1.033-0.269 1.353-0.385v-3.606c-1.408 0.56-2.718 0.84-3.839 0.84-0.98-0.56-1.995-0.84-3.138-0.84zM7.738 25.243c1.961 0 2.941 0.595 2.941 1.786 0 1.261-0.899 1.89-2.696 1.89-2.054 0-3.081-0.607-3.081-1.82-0-1.237 0.945-1.856 2.836-1.856zM7.492 16c-1.47 0-2.206-0.805-2.206-2.416 0-1.727 0.735-2.591 2.206-2.591 0.7 0 1.249 0.269 1.645 0.805 0.327 0.49 0.49 1.074 0.49 1.751 0 1.634-0.712 2.451-2.136 2.451zM18.137 0c-0.677 0-1.254 0.257-1.733 0.77s-0.718 1.132-0.718 1.856c0 0.7 0.239 1.307 0.718 1.821s1.056 0.77 1.733 0.77c0.653 0 1.22-0.256 1.698-0.77s0.718-1.12 0.718-1.821c0-0.724-0.239-1.342-0.718-1.855s-1.045-0.77-1.698-0.77zM20.098 8h-3.956c0.047 0.448-0.020 1.126-0.020 2.223v10.888c0 1.12 0.067 2.024 0.020 2.376h3.956c-0.047-0.512-0.169-1.396-0.169-2.586v-10.748c-0-1.027 0.122-1.705 0.169-2.153zM28.823 20.131c-1.027 0-1.534-0.782-1.534-2.346v-6.457h1.558c0.28 0 0.532-0.015 0.847 0.008s0.442 0.008 0.602 0.008v-3.343h-3.008v-1.488c0-0.56 0.088-1.072 0.158-1.392h-4.061c0.070 0.32 0.063 0.809 0.063 1.462v1.418h-1.76v3.343c0.48-0.070 0.909-0.105 1.212-0.105l0.548 0.035v6.337c0 1.961 0.249 3.396 0.739 4.306 0.654 1.214 1.801 1.821 3.504 1.821 1.214 0 2.285-0.233 3.085-0.7v-3.501c-0.64 0.397-1.231 0.595-1.954 0.595z"></path>
</svg>
